<svg xmlns="http://www.w3.org/2000/svg" viewBox="0 0 64 64">
  <g transform="rotate(-30 32 32)">
    <path d="M35 17c2-7 7-11 14-12-1 8-6 13-14 12Z" fill="#55a630"/>
    <path d="M31 20c1-7-1-12-5-16" fill="none" stroke="#397329" stroke-width="4" stroke-linecap="round"/>
    <g fill="#520054" stroke="#340035" stroke-width="2">
      <circle cx="23" cy="31" r="12"/>
      <circle cx="41" cy="31" r="12"/>
      <circle cx="32" cy="48" r="12"/>
    </g>
    <g fill="none" stroke="#fff" stroke-width="2" stroke-linecap="square" opacity=".36">
      <g transform="rotate(30 19 27)">
        <path d="M19 23.5v7M16.5 26h5"/>
      </g>
      <g transform="rotate(30 37 27)">
        <path d="M37 23.5v7M34.5 26h5"/>
      </g>
      <g transform="rotate(30 28 44)">
        <path d="M28 40.5v7M25.5 43h5"/>
      </g>
    </g>
  </g>
</svg>
